<svg width="164" height="132" viewBox="0 0 164 132" fill="none" xmlns="http://www.w3.org/2000/svg">
<path d="M53.5068 16.5001C51.3745 18.1063 49.0282 18.1499 49.0282 18.1499L6.36394 18.1499C6.36394 18.1499 3.91018 18.0751 2.1211 19.8001C0.265599 21.5892 4.68801e-06 24.7501 4.68801e-06 24.7501L3.70337e-07 123.527C3.15979e-07 124.77 0.129715 126.025 0.672775 127.144C1.04492 127.911 1.59079 128.822 2.35681 129.642C4.241 131.661 7.07108 131.999 7.07108 131.999L124.456 131.999C124.456 131.999 130.368 132.015 133.413 130.114C136.849 127.968 139.306 122.335 139.306 122.335L163.113 59.1642C163.113 59.1642 165.519 53.4671 162.406 49.4999C159.564 45.8791 156.513 46.1997 156.513 46.1997L125.871 46.1997L125.871 10.7121C125.871 8.30943 125.457 5.86804 123.997 3.95918C123.712 3.58546 123.393 3.20343 123.042 2.82877C122.12 1.84523 121.054 1.16943 120.17 0.725708C118.992 0.134998 117.662 5.14315e-06 116.344 5.08556e-06L66.0793 2.88842e-06C65.3993 2.8587e-06 64.7204 0.0642382 64.0734 0.273223C62.8252 0.676365 60.6299 1.57641 58.9282 3.30021C57.4224 4.82553 56.6172 6.61806 56.2159 7.79669C55.9426 8.59936 55.916 9.45254 55.8895 10.3005L55.8864 10.4013C55.8321 12.1131 55.4402 15.0438 53.5068 16.5001Z" fill="#4385FF"/>
<path d="M125.87 46.1969L125.87 131.996L8.95655 131.996C8.95655 131.996 10.5965 131.265 11.5494 130.333C11.9729 129.918 12.4684 129.261 12.874 128.682C13.4241 127.896 13.8423 127.029 14.183 126.133L41.1824 55.0854C42.1682 52.4913 43.1777 49.7156 45.4528 48.1264L45.492 48.0992C48.4116 46.0888 52.2283 46.1969 55.773 46.1969L125.87 46.1969Z" fill="#1D4ED8"/>
</svg>
