<svg width="132" height="164" viewBox="0 0 132 164" fill="none" xmlns="http://www.w3.org/2000/svg">
<path d="M16.5001 110.493C18.1063 112.625 18.1499 114.972 18.1499 114.972V157.636C18.1499 157.636 18.0751 160.09 19.8001 161.879C21.5892 163.734 24.7501 164 24.7501 164H123.527C124.77 164 126.025 163.87 127.144 163.327C127.911 162.955 128.822 162.409 129.642 161.643C131.661 159.759 131.999 156.929 131.999 156.929V39.5439C131.999 39.5439 132.015 33.6321 130.114 30.5868C127.968 27.1505 122.335 24.694 122.335 24.694L59.1641 0.886995C59.1641 0.886995 53.4671 -1.51896 49.4999 1.59416C45.8791 4.43553 46.1997 7.48695 46.1997 7.48695V38.1294H10.7121C8.30943 38.1294 5.86803 38.5435 3.95917 40.0026C3.58546 40.2883 3.20342 40.6067 2.82877 40.9579C1.84522 41.88 1.16943 42.9456 0.725702 43.8302C0.134993 45.0077 0 46.3385 0 47.6559V95.3643C0 97.7441 0.151534 100.178 1.26573 102.281C1.75935 103.212 2.42316 104.206 3.30021 105.072C4.35739 106.115 5.54292 106.823 6.56346 107.292C8.16524 108.029 9.97641 107.995 11.7254 108.217C13.3689 108.426 15.3747 108.999 16.5001 110.493Z" fill="#4385FF"/>
<path d="M46.1968 38.1296H131.996V155.043C131.996 155.043 131.265 153.403 130.333 152.45C129.918 152.027 129.261 151.531 128.682 151.126C127.896 150.576 127.029 150.157 126.133 149.817L55.0853 122.817C52.4912 121.832 49.7155 120.822 48.1263 118.547L48.0991 118.508C46.0887 115.588 46.1968 111.772 46.1968 108.227V38.1296Z" fill="#1D4ED8"/>
<path d="M21.1201 0C21.1201 0 24.7122 5.99128 27.8404 9.11946C30.9685 12.2477 36.9599 15.8397 36.9599 15.8397C36.9599 15.8397 30.9685 19.4318 27.8404 22.5599C24.7122 25.6881 21.1201 31.6795 21.1201 31.6795C21.1201 31.6795 17.5281 25.6881 14.3999 22.5599C11.2717 19.4318 5.28037 15.8397 5.28037 15.8397C5.28037 15.8397 11.2717 12.2477 14.3999 9.11946C17.5281 5.99128 21.1201 0 21.1201 0Z" fill="#BCD3FF"/>
</svg>
