<svg width="128" height="164" viewBox="0 0 128 164" fill="none" xmlns="http://www.w3.org/2000/svg">
<path d="M128 163.556H0V49.7778H49.7778V0H128V163.556Z" fill="white"/>
<path d="M22.8579 1.77783C22.8579 1.77783 27.6957 9.84695 31.9088 14.06C36.1219 18.2731 44.191 23.1109 44.191 23.1109C44.191 23.1109 36.1218 27.9487 31.9088 32.1618C27.6957 36.3748 22.8579 44.4441 22.8579 44.4441C22.8579 44.4441 18.0201 36.3748 13.807 32.1618C9.59398 27.9487 1.52479 23.1109 1.52479 23.1109C1.52479 23.1109 9.59396 18.2731 13.807 14.06C18.0201 9.84695 22.8579 1.77783 22.8579 1.77783Z" fill="#4385FF"/>
</svg>
