<svg width="146" height="38" viewBox="0 0 146 38" fill="none" xmlns="http://www.w3.org/2000/svg">
<path d="M3.12504 20.9269C3.42924 21.3307 3.4375 21.7751 3.4375 21.7751V29.8555C3.4375 29.8555 3.42333 30.3202 3.75004 30.6591C4.08889 31.0105 4.68754 31.0608 4.68754 31.0608H22.8227C23.4385 31.0608 24.1034 31.0346 24.5536 30.6144C24.936 30.2576 25 29.7216 25 29.7216V7.48943C25 7.48943 25.003 6.36975 24.6429 5.793C24.2365 5.14218 23.1697 4.67693 23.1697 4.67693L11.2054 0.167992C11.2054 0.167992 10.1264 -0.287684 9.37504 0.301927C8.68928 0.840068 8.75 1.41799 8.75 1.41799V7.22152H2.30922C1.66911 7.22152 1.00274 7.31943 0.535755 7.75723C0.0254717 8.23564 0 9.00384 0 9.70332V17.4049V17.4315C-6.49032e-05 18.3118 -0.000135124 19.2829 0.625044 19.9001C1.21745 20.4849 2.24114 20.2618 2.92484 20.7367C3.00036 20.7891 3.06856 20.8519 3.12504 20.9269Z" fill="#4385FF"/>
<path d="M8.74951 7.2215H24.9995V29.3644C24.9995 29.3644 24.861 29.0538 24.6844 28.8733C24.3781 28.5601 23.9536 28.3989 23.5433 28.2431L23.5138 28.2319L10.4414 23.2641C9.94446 23.0753 9.41129 22.8825 9.1098 22.4447C8.72904 21.8918 8.74951 21.1689 8.74951 20.4975V7.2215Z" fill="#1D4ED8"/>
<path d="M4 0C4 0 4.68032 1.13472 5.27278 1.72718C5.86524 2.31965 6.99997 2.99997 6.99997 2.99997C6.99997 2.99997 5.86524 3.68028 5.27278 4.27274C4.68031 4.8652 4 5.99994 4 5.99994C4 5.99994 3.31969 4.8652 2.72722 4.27274C2.13476 3.68028 1.00003 2.99997 1.00003 2.99997C1.00003 2.99997 2.13476 2.31965 2.72722 1.72718C3.31968 1.13472 4 0 4 0Z" fill="#BCD3FF"/>
<path d="M42.679 31H34.429V7.72727H42.7472C45.0881 7.72727 47.1032 8.19318 48.7926 9.125C50.482 10.0492 51.7813 11.3788 52.6903 13.1136C53.607 14.8485 54.0653 16.9242 54.0653 19.3409C54.0653 21.7652 53.607 23.8485 52.6903 25.5909C51.7813 27.3333 50.4744 28.6705 48.7699 29.6023C47.0729 30.5341 45.0426 31 42.679 31ZM39.3494 26.7841H42.4744C43.929 26.7841 45.1525 26.5265 46.1449 26.0114C47.1449 25.4886 47.8949 24.6818 48.3949 23.5909C48.9025 22.4924 49.1562 21.0758 49.1562 19.3409C49.1562 17.6212 48.9025 16.2159 48.3949 15.125C47.8949 14.0341 47.1487 13.2311 46.1562 12.7159C45.1638 12.2008 43.9403 11.9432 42.4858 11.9432H39.3494V26.7841ZM65.5057 31.3409C63.7405 31.3409 62.214 30.9659 60.9261 30.2159C59.6458 29.4583 58.6572 28.4053 57.9602 27.0568C57.2633 25.7008 56.9148 24.1288 56.9148 22.3409C56.9148 20.5379 57.2633 18.9621 57.9602 17.6136C58.6572 16.2576 59.6458 15.2045 60.9261 14.4545C62.214 13.697 63.7405 13.3182 65.5057 13.3182C67.2708 13.3182 68.7936 13.697 70.0739 14.4545C71.3617 15.2045 72.3542 16.2576 73.0511 17.6136C73.7481 18.9621 74.0966 20.5379 74.0966 22.3409C74.0966 24.1288 73.7481 25.7008 73.0511 27.0568C72.3542 28.4053 71.3617 29.4583 70.0739 30.2159C68.7936 30.9659 67.2708 31.3409 65.5057 31.3409ZM65.5284 27.5909C66.3314 27.5909 67.0019 27.3636 67.5398 26.9091C68.0777 26.447 68.483 25.8182 68.7557 25.0227C69.036 24.2273 69.1761 23.322 69.1761 22.3068C69.1761 21.2917 69.036 20.3864 68.7557 19.5909C68.483 18.7955 68.0777 18.1667 67.5398 17.7045C67.0019 17.2424 66.3314 17.0114 65.5284 17.0114C64.7178 17.0114 64.036 17.2424 63.483 17.7045C62.9375 18.1667 62.5246 18.7955 62.2443 19.5909C61.9716 20.3864 61.8352 21.2917 61.8352 22.3068C61.8352 23.322 61.9716 24.2273 62.2443 25.0227C62.5246 25.8182 62.9375 26.447 63.483 26.9091C64.036 27.3636 64.7178 27.5909 65.5284 27.5909ZM85.1307 31.3409C83.3428 31.3409 81.8049 30.9621 80.517 30.2045C79.2367 29.4394 78.2519 28.3788 77.5625 27.0227C76.8807 25.6667 76.5398 24.1061 76.5398 22.3409C76.5398 20.553 76.8845 18.9848 77.5739 17.6364C78.2708 16.2803 79.2595 15.2235 80.5398 14.4659C81.8201 13.7008 83.3428 13.3182 85.108 13.3182C86.6307 13.3182 87.964 13.5947 89.108 14.1477C90.2519 14.7008 91.1572 15.4773 91.8239 16.4773C92.4905 17.4773 92.858 18.6515 92.9261 20H88.358C88.2292 19.1288 87.8883 18.428 87.3352 17.8977C86.7898 17.3598 86.0739 17.0909 85.1875 17.0909C84.4375 17.0909 83.7822 17.2955 83.2216 17.7045C82.6686 18.1061 82.2367 18.6932 81.9261 19.4659C81.6155 20.2386 81.4602 21.1742 81.4602 22.2727C81.4602 23.3864 81.6117 24.3333 81.9148 25.1136C82.2254 25.8939 82.661 26.4886 83.2216 26.8977C83.7822 27.3068 84.4375 27.5114 85.1875 27.5114C85.7405 27.5114 86.2367 27.3977 86.6761 27.1705C87.1231 26.9432 87.4905 26.6136 87.7784 26.1818C88.0739 25.7424 88.267 25.2159 88.358 24.6023H92.9261C92.8504 25.9356 92.4867 27.1098 91.8352 28.125C91.1913 29.1326 90.3011 29.9205 89.1648 30.4886C88.0284 31.0568 86.6837 31.3409 85.1307 31.3409ZM100.866 7.72727V31H96.0256V7.72727H100.866ZM104.744 31V13.5455H109.585V31H104.744ZM107.176 11.2955C106.456 11.2955 105.839 11.0568 105.324 10.5795C104.816 10.0947 104.562 9.51515 104.562 8.84091C104.562 8.17424 104.816 7.60227 105.324 7.125C105.839 6.64015 106.456 6.39773 107.176 6.39773C107.896 6.39773 108.509 6.64015 109.017 7.125C109.532 7.60227 109.79 8.17424 109.79 8.84091C109.79 9.51515 109.532 10.0947 109.017 10.5795C108.509 11.0568 107.896 11.2955 107.176 11.2955ZM122.849 13.5455V17.1818H112.077V13.5455H122.849ZM114.543 31V12.2841C114.543 11.0189 114.789 9.9697 115.281 9.13636C115.781 8.30303 116.463 7.67803 117.327 7.26136C118.19 6.8447 119.171 6.63636 120.27 6.63636C121.012 6.63636 121.69 6.69318 122.304 6.80682C122.925 6.92045 123.387 7.02273 123.69 7.11364L122.827 10.75C122.637 10.6894 122.402 10.6326 122.122 10.5795C121.849 10.5265 121.569 10.5 121.281 10.5C120.569 10.5 120.073 10.6667 119.793 11C119.512 11.3258 119.372 11.7841 119.372 12.375V31H114.543ZM128.795 37.5455C128.182 37.5455 127.606 37.4962 127.068 37.3977C126.538 37.3068 126.098 37.1894 125.75 37.0455L126.841 33.4318C127.409 33.6061 127.92 33.7008 128.375 33.7159C128.837 33.7311 129.235 33.625 129.568 33.3977C129.909 33.1705 130.186 32.7841 130.398 32.2386L130.682 31.5L124.42 13.5455H129.511L133.125 26.3636H133.307L136.955 13.5455H142.08L135.295 32.8864C134.97 33.8258 134.527 34.6439 133.966 35.3409C133.413 36.0455 132.712 36.5871 131.864 36.9659C131.015 37.3523 129.992 37.5455 128.795 37.5455Z" fill="black"/>
</svg>
