<svg width="131" height="39" viewBox="0 0 131 39" fill="none" xmlns="http://www.w3.org/2000/svg">
<path d="M30.2371 31H21.9871V7.72727H30.3053C32.6462 7.72727 34.6613 8.19318 36.3507 9.125C38.0401 10.0492 39.3394 11.3788 40.2484 13.1136C41.1651 14.8485 41.6234 16.9242 41.6234 19.3409C41.6234 21.7652 41.1651 23.8485 40.2484 25.5909C39.3394 27.3333 38.0325 28.6705 36.328 29.6023C34.631 30.5341 32.6007 31 30.2371 31ZM26.9075 26.7841H30.0325C31.4871 26.7841 32.7106 26.5265 33.703 26.0114C34.703 25.4886 35.453 24.6818 35.953 23.5909C36.4606 22.4924 36.7144 21.0758 36.7144 19.3409C36.7144 17.6212 36.4606 16.2159 35.953 15.125C35.453 14.0341 34.7068 13.2311 33.7144 12.7159C32.7219 12.2008 31.4984 11.9432 30.0439 11.9432H26.9075V26.7841ZM53.0638 31.3409C51.2986 31.3409 49.7721 30.9659 48.4842 30.2159C47.2039 29.4583 46.2153 28.4053 45.5183 27.0568C44.8214 25.7008 44.4729 24.1288 44.4729 22.3409C44.4729 20.5379 44.8214 18.9621 45.5183 17.6136C46.2153 16.2576 47.2039 15.2045 48.4842 14.4545C49.7721 13.697 51.2986 13.3182 53.0638 13.3182C54.8289 13.3182 56.3517 13.697 57.632 14.4545C58.9198 15.2045 59.9123 16.2576 60.6092 17.6136C61.3062 18.9621 61.6547 20.5379 61.6547 22.3409C61.6547 24.1288 61.3062 25.7008 60.6092 27.0568C59.9123 28.4053 58.9198 29.4583 57.632 30.2159C56.3517 30.9659 54.8289 31.3409 53.0638 31.3409ZM53.0865 27.5909C53.8895 27.5909 54.56 27.3636 55.0979 26.9091C55.6358 26.447 56.0411 25.8182 56.3138 25.0227C56.5941 24.2273 56.7342 23.322 56.7342 22.3068C56.7342 21.2917 56.5941 20.3864 56.3138 19.5909C56.0411 18.7955 55.6358 18.1667 55.0979 17.7045C54.56 17.2424 53.8895 17.0114 53.0865 17.0114C52.2759 17.0114 51.5941 17.2424 51.0411 17.7045C50.4956 18.1667 50.0827 18.7955 49.8024 19.5909C49.5297 20.3864 49.3933 21.2917 49.3933 22.3068C49.3933 23.322 49.5297 24.2273 49.8024 25.0227C50.0827 25.8182 50.4956 26.447 51.0411 26.9091C51.5941 27.3636 52.2759 27.5909 53.0865 27.5909ZM72.6888 31.3409C70.9009 31.3409 69.363 30.9621 68.0752 30.2045C66.7948 29.4394 65.81 28.3788 65.1206 27.0227C64.4388 25.6667 64.0979 24.1061 64.0979 22.3409C64.0979 20.553 64.4426 18.9848 65.132 17.6364C65.8289 16.2803 66.8176 15.2235 68.0979 14.4659C69.3782 13.7008 70.9009 13.3182 72.6661 13.3182C74.1888 13.3182 75.5221 13.5947 76.6661 14.1477C77.81 14.7008 78.7153 15.4773 79.382 16.4773C80.0486 17.4773 80.4161 18.6515 80.4842 20H75.9161C75.7873 19.1288 75.4464 18.428 74.8933 17.8977C74.3479 17.3598 73.632 17.0909 72.7456 17.0909C71.9956 17.0909 71.3403 17.2955 70.7797 17.7045C70.2267 18.1061 69.7948 18.6932 69.4842 19.4659C69.1736 20.2386 69.0183 21.1742 69.0183 22.2727C69.0183 23.3864 69.1698 24.3333 69.4729 25.1136C69.7835 25.8939 70.2191 26.4886 70.7797 26.8977C71.3403 27.3068 71.9956 27.5114 72.7456 27.5114C73.2986 27.5114 73.7948 27.3977 74.2342 27.1705C74.6812 26.9432 75.0486 26.6136 75.3365 26.1818C75.632 25.7424 75.8252 25.2159 75.9161 24.6023H80.4842C80.4085 25.9356 80.0448 27.1098 79.3933 28.125C78.7494 29.1326 77.8592 29.9205 76.7229 30.4886C75.5865 31.0568 74.2418 31.3409 72.6888 31.3409ZM88.4246 7.72727V31H83.5837V7.72727H88.4246ZM92.3024 31V13.5455H97.1433V31H92.3024ZM94.7342 11.2955C94.0145 11.2955 93.3971 11.0568 92.882 10.5795C92.3744 10.0947 92.1206 9.51515 92.1206 8.84091C92.1206 8.17424 92.3744 7.60227 92.882 7.125C93.3971 6.64015 94.0145 6.39773 94.7342 6.39773C95.4539 6.39773 96.0676 6.64015 96.5752 7.125C97.0903 7.60227 97.3479 8.17424 97.3479 8.84091C97.3479 9.51515 97.0903 10.0947 96.5752 10.5795C96.0676 11.0568 95.4539 11.2955 94.7342 11.2955ZM110.408 13.5455V17.1818H99.6348V13.5455H110.408ZM102.101 31V12.2841C102.101 11.0189 102.347 9.9697 102.839 9.13636C103.339 8.30303 104.021 7.67803 104.885 7.26136C105.748 6.8447 106.73 6.63636 107.828 6.63636C108.57 6.63636 109.248 6.69318 109.862 6.80682C110.483 6.92045 110.945 7.02273 111.248 7.11364L110.385 10.75C110.195 10.6894 109.961 10.6326 109.68 10.5795C109.408 10.5265 109.127 10.5 108.839 10.5C108.127 10.5 107.631 10.6667 107.351 11C107.07 11.3258 106.93 11.7841 106.93 12.375V31H102.101ZM116.354 37.5455C115.74 37.5455 115.164 37.4962 114.626 37.3977C114.096 37.3068 113.657 37.1894 113.308 37.0455L114.399 33.4318C114.967 33.6061 115.479 33.7008 115.933 33.7159C116.395 33.7311 116.793 33.625 117.126 33.3977C117.467 33.1705 117.744 32.7841 117.956 32.2386L118.24 31.5L111.979 13.5455H117.069L120.683 26.3636H120.865L124.513 13.5455H129.638L122.854 32.8864C122.528 33.8258 122.085 34.6439 121.524 35.3409C120.971 36.0455 120.27 36.5871 119.422 36.9659C118.573 37.3523 117.551 37.5455 116.354 37.5455Z" fill="black"/>
<path d="M18 31H0V15H7V8H18V31Z" fill="black"/>
<path d="M3.21436 8.25C3.21436 8.25 3.89468 9.38472 4.48713 9.97718C5.0796 10.5696 6.21433 11.25 6.21433 11.25C6.21433 11.25 5.0796 11.9303 4.48713 12.5227C3.89467 13.1152 3.21436 14.2499 3.21436 14.2499C3.21436 14.2499 2.53404 13.1152 1.94158 12.5227C1.34911 11.9303 0.214386 11.25 0.214386 11.25C0.214386 11.25 1.34911 10.5696 1.94158 9.97718C2.53404 9.38472 3.21436 8.25 3.21436 8.25Z" fill="black"/>
</svg>
