<svg width="160" height="38" viewBox="0 0 160 38" fill="none" xmlns="http://www.w3.org/2000/svg">
<path d="M12.5663 3.87505C12.0655 4.25225 11.5145 4.2625 11.5145 4.2625L1.4948 4.2625C1.4948 4.2625 0.918537 4.24493 0.498371 4.65005C0.0626066 5.07022 0.000232442 5.81255 0.000232442 5.81255L0.000231459 28.3002C0.000231426 29.0638 0.0326906 29.8882 0.553729 30.4465C0.996226 30.9206 1.66087 31 1.66087 31L29.2287 31C29.2287 31 30.6171 31.0038 31.3323 30.5572C32.1393 30.0533 32.7162 28.7304 32.7162 28.7304L38.3073 13.8947C38.3073 13.8947 38.8724 12.5567 38.1412 11.6251C37.4739 10.7747 36.7573 10.85 36.7573 10.85L29.5609 10.85L29.5609 2.86344C29.5609 2.06969 29.4395 1.24339 28.8967 0.664335C28.3034 0.0315845 27.3509 -4.88027e-07 26.4835 -5.2594e-07L16.9336 -9.43382e-07L16.9006 -9.44823e-07C15.8089 -8.14738e-05 14.6048 -0.000168594 13.8395 0.775053C13.1143 1.50964 13.391 2.77902 12.8021 3.6268C12.7371 3.72045 12.6593 3.80501 12.5663 3.87505Z" fill="#4385FF"/>
<path d="M29.5605 10.8494L29.5605 30.9994L2.1034 30.9994C2.1034 30.9994 2.48855 30.8275 2.71233 30.6086C3.10065 30.2288 3.30056 29.7024 3.49374 29.1936L3.50761 29.1571L9.66766 12.9473C9.90183 12.3311 10.1408 11.67 10.6838 11.2961C11.3694 10.824 12.2658 10.8494 13.0982 10.8494L29.5605 10.8494Z" fill="#1D4ED8"/>
<path d="M56.1946 31H47.9446V7.72727H56.2628C58.6037 7.72727 60.6188 8.19318 62.3082 9.125C63.9976 10.0492 65.2969 11.3788 66.206 13.1136C67.1226 14.8485 67.581 16.9242 67.581 19.3409C67.581 21.7652 67.1226 23.8485 66.206 25.5909C65.2969 27.3333 63.9901 28.6705 62.2855 29.6023C60.5885 30.5341 58.5582 31 56.1946 31ZM52.8651 26.7841H55.9901C57.4446 26.7841 58.6681 26.5265 59.6605 26.0114C60.6605 25.4886 61.4105 24.6818 61.9105 23.5909C62.4181 22.4924 62.6719 21.0758 62.6719 19.3409C62.6719 17.6212 62.4181 16.2159 61.9105 15.125C61.4105 14.0341 60.6643 13.2311 59.6719 12.7159C58.6795 12.2008 57.456 11.9432 56.0014 11.9432H52.8651V26.7841ZM79.0213 31.3409C77.2562 31.3409 75.7296 30.9659 74.4418 30.2159C73.1615 29.4583 72.1728 28.4053 71.4759 27.0568C70.7789 25.7008 70.4304 24.1288 70.4304 22.3409C70.4304 20.5379 70.7789 18.9621 71.4759 17.6136C72.1728 16.2576 73.1615 15.2045 74.4418 14.4545C75.7296 13.697 77.2562 13.3182 79.0213 13.3182C80.7865 13.3182 82.3092 13.697 83.5895 14.4545C84.8774 15.2045 85.8698 16.2576 86.5668 17.6136C87.2637 18.9621 87.6122 20.5379 87.6122 22.3409C87.6122 24.1288 87.2637 25.7008 86.5668 27.0568C85.8698 28.4053 84.8774 29.4583 83.5895 30.2159C82.3092 30.9659 80.7865 31.3409 79.0213 31.3409ZM79.044 27.5909C79.8471 27.5909 80.5175 27.3636 81.0554 26.9091C81.5933 26.447 81.9986 25.8182 82.2713 25.0227C82.5516 24.2273 82.6918 23.322 82.6918 22.3068C82.6918 21.2917 82.5516 20.3864 82.2713 19.5909C81.9986 18.7955 81.5933 18.1667 81.0554 17.7045C80.5175 17.2424 79.8471 17.0114 79.044 17.0114C78.2334 17.0114 77.5516 17.2424 76.9986 17.7045C76.4531 18.1667 76.0402 18.7955 75.7599 19.5909C75.4872 20.3864 75.3509 21.2917 75.3509 22.3068C75.3509 23.322 75.4872 24.2273 75.7599 25.0227C76.0402 25.8182 76.4531 26.447 76.9986 26.9091C77.5516 27.3636 78.2334 27.5909 79.044 27.5909ZM98.6463 31.3409C96.8584 31.3409 95.3205 30.9621 94.0327 30.2045C92.7524 29.4394 91.7675 28.3788 91.0781 27.0227C90.3963 25.6667 90.0554 24.1061 90.0554 22.3409C90.0554 20.553 90.4001 18.9848 91.0895 17.6364C91.7865 16.2803 92.7751 15.2235 94.0554 14.4659C95.3357 13.7008 96.8584 13.3182 98.6236 13.3182C100.146 13.3182 101.48 13.5947 102.624 14.1477C103.768 14.7008 104.673 15.4773 105.339 16.4773C106.006 17.4773 106.374 18.6515 106.442 20H101.874C101.745 19.1288 101.404 18.428 100.851 17.8977C100.305 17.3598 99.5895 17.0909 98.7031 17.0909C97.9531 17.0909 97.2978 17.2955 96.7372 17.7045C96.1842 18.1061 95.7524 18.6932 95.4418 19.4659C95.1312 20.2386 94.9759 21.1742 94.9759 22.2727C94.9759 23.3864 95.1274 24.3333 95.4304 25.1136C95.741 25.8939 96.1766 26.4886 96.7372 26.8977C97.2978 27.3068 97.9531 27.5114 98.7031 27.5114C99.2562 27.5114 99.7524 27.3977 100.192 27.1705C100.639 26.9432 101.006 26.6136 101.294 26.1818C101.589 25.7424 101.783 25.2159 101.874 24.6023H106.442C106.366 25.9356 106.002 27.1098 105.351 28.125C104.707 29.1326 103.817 29.9205 102.68 30.4886C101.544 31.0568 100.199 31.3409 98.6463 31.3409ZM114.382 7.72727V31H109.541V7.72727H114.382ZM118.26 31V13.5455H123.101V31H118.26ZM120.692 11.2955C119.972 11.2955 119.355 11.0568 118.839 10.5795C118.332 10.0947 118.078 9.51515 118.078 8.84091C118.078 8.17424 118.332 7.60227 118.839 7.125C119.355 6.64015 119.972 6.39773 120.692 6.39773C121.411 6.39773 122.025 6.64015 122.533 7.125C123.048 7.60227 123.305 8.17424 123.305 8.84091C123.305 9.51515 123.048 10.0947 122.533 10.5795C122.025 11.0568 121.411 11.2955 120.692 11.2955ZM136.365 13.5455V17.1818H125.592V13.5455H136.365ZM128.058 31V12.2841C128.058 11.0189 128.304 9.9697 128.797 9.13636C129.297 8.30303 129.979 7.67803 130.842 7.26136C131.706 6.8447 132.687 6.63636 133.786 6.63636C134.528 6.63636 135.206 6.69318 135.82 6.80682C136.441 6.92045 136.903 7.02273 137.206 7.11364L136.342 10.75C136.153 10.6894 135.918 10.6326 135.638 10.5795C135.365 10.5265 135.085 10.5 134.797 10.5C134.085 10.5 133.589 10.6667 133.308 11C133.028 11.3258 132.888 11.7841 132.888 12.375V31H128.058ZM142.311 37.5455C141.697 37.5455 141.122 37.4962 140.584 37.3977C140.054 37.3068 139.614 37.1894 139.266 37.0455L140.357 33.4318C140.925 33.6061 141.436 33.7008 141.891 33.7159C142.353 33.7311 142.75 33.625 143.084 33.3977C143.425 33.1705 143.701 32.7841 143.913 32.2386L144.197 31.5L137.936 13.5455H143.027L146.641 26.3636H146.822L150.47 13.5455H155.595L148.811 32.8864C148.485 33.8258 148.042 34.6439 147.482 35.3409C146.929 36.0455 146.228 36.5871 145.379 36.9659C144.531 37.3523 143.508 37.5455 142.311 37.5455Z" fill="white"/>
</svg>
